<mxfile host="app.diagrams.net" modified="2021-01-29T16:58:38.955Z" agent="5.0 (Windows NT 10.0; Win64; x64) AppleWebKit/537.36 (KHTML, like Gecko) Chrome/87.0.4280.141 Safari/537.36" etag="7x7GsDHjfpBxI_p73R1-" version="14.2.7" type="github">
  <diagram id="R2lEEEUBdFMjLlhIrx00" name="Page-1">
    <mxGraphModel dx="2333" dy="1883" grid="1" gridSize="10" guides="1" tooltips="1" connect="1" arrows="1" fold="1" page="1" pageScale="1" pageWidth="850" pageHeight="1100" math="0" shadow="0" extFonts="Permanent Marker^https://fonts.googleapis.com/css?family=Permanent+Marker">
      <root>
        <mxCell id="0" />
        <mxCell id="1" parent="0" />
        <mxCell id="KSKS-mOUjZ5MCXabh2uJ-1" value="Patient&amp;nbsp;" style="rounded=0;whiteSpace=wrap;html=1;fontSize=17;" parent="1" vertex="1">
          <mxGeometry x="248" y="140" width="120" height="60" as="geometry" />
        </mxCell>
        <mxCell id="KSKS-mOUjZ5MCXabh2uJ-3" value="Bill" style="rhombus;whiteSpace=wrap;html=1;fontSize=17;" parent="1" vertex="1">
          <mxGeometry x="280" y="320" width="80" height="80" as="geometry" />
        </mxCell>
        <mxCell id="KSKS-mOUjZ5MCXabh2uJ-6" value="Treatment" style="whiteSpace=wrap;html=1;fontSize=17;" parent="1" vertex="1">
          <mxGeometry x="270" y="450" width="120" height="60" as="geometry" />
        </mxCell>
        <mxCell id="KSKS-mOUjZ5MCXabh2uJ-11" value="Medication" style="ellipse;whiteSpace=wrap;html=1;fontSize=17;" parent="1" vertex="1">
          <mxGeometry x="90" y="440" width="120" height="80" as="geometry" />
        </mxCell>
        <mxCell id="KSKS-mOUjZ5MCXabh2uJ-15" value="Name" style="ellipse;whiteSpace=wrap;html=1;rounded=0;fontSize=17;" parent="1" vertex="1">
          <mxGeometry x="98" y="-20" width="120" height="80" as="geometry" />
        </mxCell>
        <mxCell id="KSKS-mOUjZ5MCXabh2uJ-17" value="Address" style="ellipse;whiteSpace=wrap;html=1;rounded=0;fontSize=17;" parent="1" vertex="1">
          <mxGeometry x="190" y="-90" width="120" height="80" as="geometry" />
        </mxCell>
        <mxCell id="KSKS-mOUjZ5MCXabh2uJ-19" value="Contact No." style="ellipse;whiteSpace=wrap;html=1;rounded=0;fontSize=17;" parent="1" vertex="1">
          <mxGeometry x="18" y="100" width="120" height="80" as="geometry" />
        </mxCell>
        <mxCell id="KSKS-mOUjZ5MCXabh2uJ-21" value="Sex" style="ellipse;whiteSpace=wrap;html=1;rounded=0;fontSize=17;" parent="1" vertex="1">
          <mxGeometry x="-110" y="140" width="120" height="80" as="geometry" />
        </mxCell>
        <mxCell id="KSKS-mOUjZ5MCXabh2uJ-24" value="Age" style="ellipse;whiteSpace=wrap;html=1;fontSize=17;" parent="1" vertex="1">
          <mxGeometry x="-22" y="220" width="120" height="80" as="geometry" />
        </mxCell>
        <mxCell id="KSKS-mOUjZ5MCXabh2uJ-25" value="Patient ID" style="ellipse;whiteSpace=wrap;html=1;rounded=0;fontSize=17;" parent="1" vertex="1">
          <mxGeometry x="-120" y="280" width="120" height="80" as="geometry" />
        </mxCell>
        <mxCell id="KSKS-mOUjZ5MCXabh2uJ-27" value="Assigned" style="rhombus;whiteSpace=wrap;html=1;rounded=0;fontSize=17;" parent="1" vertex="1">
          <mxGeometry x="290" width="80" height="80" as="geometry" />
        </mxCell>
        <mxCell id="KSKS-mOUjZ5MCXabh2uJ-29" value="Room" style="whiteSpace=wrap;html=1;rounded=0;fontSize=17;" parent="1" vertex="1">
          <mxGeometry x="450" y="10" width="120" height="60" as="geometry" />
        </mxCell>
        <mxCell id="KSKS-mOUjZ5MCXabh2uJ-39" value="Doctor" style="rounded=0;whiteSpace=wrap;html=1;fontSize=17;" parent="1" vertex="1">
          <mxGeometry x="720" y="140" width="120" height="60" as="geometry" />
        </mxCell>
        <mxCell id="KSKS-mOUjZ5MCXabh2uJ-54" value="Name" style="ellipse;whiteSpace=wrap;html=1;rounded=0;fontSize=17;" parent="1" vertex="1">
          <mxGeometry x="660" y="240" width="120" height="80" as="geometry" />
        </mxCell>
        <mxCell id="KSKS-mOUjZ5MCXabh2uJ-56" value="Qualification" style="ellipse;whiteSpace=wrap;html=1;rounded=0;fontSize=17;" parent="1" vertex="1">
          <mxGeometry x="910" y="120" width="120" height="80" as="geometry" />
        </mxCell>
        <mxCell id="KSKS-mOUjZ5MCXabh2uJ-58" value="Contact No." style="ellipse;whiteSpace=wrap;html=1;fontSize=17;" parent="1" vertex="1">
          <mxGeometry x="800" y="240" width="120" height="80" as="geometry" />
        </mxCell>
        <mxCell id="KSKS-mOUjZ5MCXabh2uJ-68" value="Governs" style="rhombus;whiteSpace=wrap;html=1;fontSize=17;" parent="1" vertex="1">
          <mxGeometry x="660" width="80" height="80" as="geometry" />
        </mxCell>
        <mxCell id="KSKS-mOUjZ5MCXabh2uJ-69" value="Nurse" style="whiteSpace=wrap;html=1;fontSize=17;" parent="1" vertex="1">
          <mxGeometry x="840" y="10" width="120" height="60" as="geometry" />
        </mxCell>
        <mxCell id="f7zmV67krFqIdTI_dObS-13" value="1" style="endArrow=none;html=1;strokeWidth=1;fontSize=17;" edge="1" parent="1">
          <mxGeometry width="50" height="50" relative="1" as="geometry">
            <mxPoint x="320" y="449" as="sourcePoint" />
            <mxPoint x="320" y="400" as="targetPoint" />
          </mxGeometry>
        </mxCell>
        <mxCell id="f7zmV67krFqIdTI_dObS-14" value="1" style="endArrow=none;html=1;strokeWidth=1;fontSize=17;exitX=0.5;exitY=0;exitDx=0;exitDy=0;" edge="1" parent="1" source="KSKS-mOUjZ5MCXabh2uJ-3">
          <mxGeometry width="50" height="50" relative="1" as="geometry">
            <mxPoint x="490" y="410" as="sourcePoint" />
            <mxPoint x="320" y="200" as="targetPoint" />
            <Array as="points" />
          </mxGeometry>
        </mxCell>
        <mxCell id="f7zmV67krFqIdTI_dObS-15" value="Duration" style="ellipse;whiteSpace=wrap;html=1;fontSize=17;" vertex="1" parent="1">
          <mxGeometry x="260" y="560" width="120" height="80" as="geometry" />
        </mxCell>
        <mxCell id="f7zmV67krFqIdTI_dObS-22" value="Room Type" style="ellipse;whiteSpace=wrap;html=1;fontSize=17;" vertex="1" parent="1">
          <mxGeometry x="440" y="440" width="120" height="80" as="geometry" />
        </mxCell>
        <mxCell id="f7zmV67krFqIdTI_dObS-27" value="&lt;font style=&quot;font-size: 17px&quot;&gt;N&lt;/font&gt;" style="endArrow=none;html=1;strokeWidth=1;fontSize=17;entryX=0.5;entryY=1;entryDx=0;entryDy=0;exitX=0.692;exitY=-0.008;exitDx=0;exitDy=0;exitPerimeter=0;" edge="1" parent="1" source="KSKS-mOUjZ5MCXabh2uJ-1" target="KSKS-mOUjZ5MCXabh2uJ-27">
          <mxGeometry width="50" height="50" relative="1" as="geometry">
            <mxPoint x="290" y="130" as="sourcePoint" />
            <mxPoint x="340" y="80" as="targetPoint" />
          </mxGeometry>
        </mxCell>
        <mxCell id="f7zmV67krFqIdTI_dObS-28" value="Room Type" style="ellipse;whiteSpace=wrap;html=1;rounded=0;fontSize=17;" vertex="1" parent="1">
          <mxGeometry x="370" y="-120" width="120" height="80" as="geometry" />
        </mxCell>
        <mxCell id="f7zmV67krFqIdTI_dObS-31" value="&lt;font style=&quot;font-size: 17px;&quot;&gt;&lt;font style=&quot;font-size: 17px;&quot;&gt;Roo&lt;/font&gt;m No.&lt;/font&gt;" style="ellipse;whiteSpace=wrap;html=1;strokeWidth=1;fontSize=17;" vertex="1" parent="1">
          <mxGeometry x="500" y="-120" width="120" height="80" as="geometry" />
        </mxCell>
        <mxCell id="f7zmV67krFqIdTI_dObS-33" value="" style="endArrow=none;html=1;strokeWidth=1;fontSize=17;exitX=0.923;exitY=-0.023;exitDx=0;exitDy=0;exitPerimeter=0;" edge="1" parent="1" source="KSKS-mOUjZ5MCXabh2uJ-29">
          <mxGeometry width="50" height="50" relative="1" as="geometry">
            <mxPoint x="510" y="10" as="sourcePoint" />
            <mxPoint x="560" y="-40" as="targetPoint" />
          </mxGeometry>
        </mxCell>
        <mxCell id="f7zmV67krFqIdTI_dObS-34" value="Name" style="ellipse;whiteSpace=wrap;html=1;fontSize=17;" vertex="1" parent="1">
          <mxGeometry x="840" y="-140" width="120" height="80" as="geometry" />
        </mxCell>
        <mxCell id="f7zmV67krFqIdTI_dObS-36" value="Working Hours" style="ellipse;whiteSpace=wrap;html=1;fontSize=17;" vertex="1" parent="1">
          <mxGeometry x="1040" width="120" height="80" as="geometry" />
        </mxCell>
        <mxCell id="f7zmV67krFqIdTI_dObS-38" value="Contact&amp;nbsp;" style="ellipse;whiteSpace=wrap;html=1;fontSize=17;" vertex="1" parent="1">
          <mxGeometry x="980" y="-120" width="120" height="80" as="geometry" />
        </mxCell>
        <mxCell id="f7zmV67krFqIdTI_dObS-40" value="1" style="endArrow=none;html=1;strokeWidth=1;fontSize=17;entryX=0;entryY=0.5;entryDx=0;entryDy=0;" edge="1" parent="1" target="KSKS-mOUjZ5MCXabh2uJ-29">
          <mxGeometry width="50" height="50" relative="1" as="geometry">
            <mxPoint x="370" y="40" as="sourcePoint" />
            <mxPoint x="420" y="-10" as="targetPoint" />
          </mxGeometry>
        </mxCell>
        <mxCell id="f7zmV67krFqIdTI_dObS-41" value="N" style="endArrow=none;html=1;strokeWidth=1;fontSize=17;entryX=0;entryY=0.5;entryDx=0;entryDy=0;" edge="1" parent="1" target="KSKS-mOUjZ5MCXabh2uJ-40">
          <mxGeometry width="50" height="50" relative="1" as="geometry">
            <mxPoint x="368" y="170" as="sourcePoint" />
            <mxPoint x="418" y="120" as="targetPoint" />
          </mxGeometry>
        </mxCell>
        <mxCell id="f7zmV67krFqIdTI_dObS-42" value="" style="endArrow=none;html=1;strokeWidth=1;fontSize=17;" edge="1" parent="1">
          <mxGeometry width="50" height="50" relative="1" as="geometry">
            <mxPoint x="610" y="130" as="sourcePoint" />
            <mxPoint x="610" y="130" as="targetPoint" />
          </mxGeometry>
        </mxCell>
        <mxCell id="f7zmV67krFqIdTI_dObS-43" value="N" style="endArrow=none;html=1;strokeWidth=1;fontSize=17;entryX=0;entryY=0.5;entryDx=0;entryDy=0;exitX=1;exitY=0.5;exitDx=0;exitDy=0;" edge="1" parent="1" source="KSKS-mOUjZ5MCXabh2uJ-68" target="KSKS-mOUjZ5MCXabh2uJ-69">
          <mxGeometry width="50" height="50" relative="1" as="geometry">
            <mxPoint x="730" y="50" as="sourcePoint" />
            <mxPoint x="780" as="targetPoint" />
          </mxGeometry>
        </mxCell>
        <mxCell id="f7zmV67krFqIdTI_dObS-44" value="N" style="endArrow=none;html=1;strokeWidth=1;fontSize=17;entryX=0;entryY=0.5;entryDx=0;entryDy=0;" edge="1" parent="1" target="KSKS-mOUjZ5MCXabh2uJ-68">
          <mxGeometry width="50" height="50" relative="1" as="geometry">
            <mxPoint x="570" y="40" as="sourcePoint" />
            <mxPoint x="620" y="-10" as="targetPoint" />
          </mxGeometry>
        </mxCell>
        <mxCell id="f7zmV67krFqIdTI_dObS-45" value="" style="endArrow=none;html=1;strokeWidth=1;fontSize=17;entryX=0;entryY=0.5;entryDx=0;entryDy=0;" edge="1" parent="1" target="f7zmV67krFqIdTI_dObS-36">
          <mxGeometry width="50" height="50" relative="1" as="geometry">
            <mxPoint x="960" y="40" as="sourcePoint" />
            <mxPoint x="1010" y="-10" as="targetPoint" />
          </mxGeometry>
        </mxCell>
        <mxCell id="f7zmV67krFqIdTI_dObS-46" value="" style="endArrow=none;html=1;strokeWidth=1;fontSize=17;entryX=0.3;entryY=0.968;entryDx=0;entryDy=0;entryPerimeter=0;" edge="1" parent="1" target="f7zmV67krFqIdTI_dObS-38">
          <mxGeometry width="50" height="50" relative="1" as="geometry">
            <mxPoint x="960" y="10" as="sourcePoint" />
            <mxPoint x="1010" y="-40" as="targetPoint" />
          </mxGeometry>
        </mxCell>
        <mxCell id="f7zmV67krFqIdTI_dObS-47" value="" style="endArrow=none;html=1;strokeWidth=1;fontSize=17;exitX=0.5;exitY=0;exitDx=0;exitDy=0;" edge="1" parent="1" source="KSKS-mOUjZ5MCXabh2uJ-69">
          <mxGeometry width="50" height="50" relative="1" as="geometry">
            <mxPoint x="850" y="-10" as="sourcePoint" />
            <mxPoint x="900" y="-60" as="targetPoint" />
          </mxGeometry>
        </mxCell>
        <mxCell id="f7zmV67krFqIdTI_dObS-48" value="" style="endArrow=none;html=1;strokeWidth=1;fontSize=17;" edge="1" parent="1">
          <mxGeometry width="50" height="50" relative="1" as="geometry">
            <mxPoint x="320" y="560" as="sourcePoint" />
            <mxPoint x="320" y="510" as="targetPoint" />
          </mxGeometry>
        </mxCell>
        <mxCell id="f7zmV67krFqIdTI_dObS-49" value="" style="endArrow=none;html=1;strokeWidth=1;fontSize=17;entryX=0;entryY=0.5;entryDx=0;entryDy=0;" edge="1" parent="1" target="f7zmV67krFqIdTI_dObS-22">
          <mxGeometry width="50" height="50" relative="1" as="geometry">
            <mxPoint x="390" y="480" as="sourcePoint" />
            <mxPoint x="440" y="430" as="targetPoint" />
          </mxGeometry>
        </mxCell>
        <mxCell id="f7zmV67krFqIdTI_dObS-50" value="" style="endArrow=none;html=1;strokeWidth=1;fontSize=17;exitX=0.333;exitY=0;exitDx=0;exitDy=0;exitPerimeter=0;" edge="1" parent="1" source="KSKS-mOUjZ5MCXabh2uJ-58">
          <mxGeometry width="50" height="50" relative="1" as="geometry">
            <mxPoint x="790" y="250" as="sourcePoint" />
            <mxPoint x="840" y="200" as="targetPoint" />
          </mxGeometry>
        </mxCell>
        <mxCell id="f7zmV67krFqIdTI_dObS-51" value="" style="endArrow=none;html=1;strokeWidth=1;fontSize=17;exitX=0.5;exitY=0;exitDx=0;exitDy=0;" edge="1" parent="1" source="KSKS-mOUjZ5MCXabh2uJ-54">
          <mxGeometry width="50" height="50" relative="1" as="geometry">
            <mxPoint x="670" y="250" as="sourcePoint" />
            <mxPoint x="720" y="200" as="targetPoint" />
          </mxGeometry>
        </mxCell>
        <mxCell id="f7zmV67krFqIdTI_dObS-52" value="N" style="endArrow=none;html=1;strokeWidth=1;fontSize=17;entryX=0;entryY=0.5;entryDx=0;entryDy=0;" edge="1" parent="1" source="KSKS-mOUjZ5MCXabh2uJ-40" target="KSKS-mOUjZ5MCXabh2uJ-39">
          <mxGeometry width="50" height="50" relative="1" as="geometry">
            <mxPoint x="520" y="170" as="sourcePoint" />
            <mxPoint x="570" y="120" as="targetPoint" />
            <Array as="points" />
          </mxGeometry>
        </mxCell>
        <mxCell id="f7zmV67krFqIdTI_dObS-53" value="" style="endArrow=none;html=1;strokeWidth=1;fontSize=17;" edge="1" parent="1" target="KSKS-mOUjZ5MCXabh2uJ-56">
          <mxGeometry width="50" height="50" relative="1" as="geometry">
            <mxPoint x="840" y="160" as="sourcePoint" />
            <mxPoint x="890" y="110" as="targetPoint" />
          </mxGeometry>
        </mxCell>
        <mxCell id="f7zmV67krFqIdTI_dObS-54" value="" style="endArrow=none;html=1;strokeWidth=1;fontSize=17;exitX=0.183;exitY=-0.01;exitDx=0;exitDy=0;exitPerimeter=0;" edge="1" parent="1" source="KSKS-mOUjZ5MCXabh2uJ-29">
          <mxGeometry width="50" height="50" relative="1" as="geometry">
            <mxPoint x="420" as="sourcePoint" />
            <mxPoint x="470" y="-50" as="targetPoint" />
          </mxGeometry>
        </mxCell>
        <mxCell id="f7zmV67krFqIdTI_dObS-55" value="" style="endArrow=none;html=1;strokeWidth=1;fontSize=17;entryX=0;entryY=0.5;entryDx=0;entryDy=0;" edge="1" parent="1" target="KSKS-mOUjZ5MCXabh2uJ-6">
          <mxGeometry width="50" height="50" relative="1" as="geometry">
            <mxPoint x="210" y="480" as="sourcePoint" />
            <mxPoint x="260" y="430" as="targetPoint" />
            <Array as="points" />
          </mxGeometry>
        </mxCell>
        <mxCell id="f7zmV67krFqIdTI_dObS-56" value="" style="endArrow=none;html=1;strokeWidth=1;fontSize=17;entryX=0.25;entryY=1;entryDx=0;entryDy=0;" edge="1" parent="1" target="KSKS-mOUjZ5MCXabh2uJ-1">
          <mxGeometry width="50" height="50" relative="1" as="geometry">
            <mxPoint y="320" as="sourcePoint" />
            <mxPoint x="270" y="320" as="targetPoint" />
            <Array as="points">
              <mxPoint x="278" y="320" />
            </Array>
          </mxGeometry>
        </mxCell>
        <mxCell id="f7zmV67krFqIdTI_dObS-57" value="" style="endArrow=none;html=1;strokeWidth=1;fontSize=17;entryX=0;entryY=1;entryDx=0;entryDy=0;" edge="1" parent="1" target="KSKS-mOUjZ5MCXabh2uJ-1">
          <mxGeometry width="50" height="50" relative="1" as="geometry">
            <mxPoint x="98" y="260" as="sourcePoint" />
            <mxPoint x="148" y="210" as="targetPoint" />
          </mxGeometry>
        </mxCell>
        <mxCell id="f7zmV67krFqIdTI_dObS-58" value="" style="endArrow=none;html=1;strokeWidth=1;fontSize=17;entryX=0;entryY=0.75;entryDx=0;entryDy=0;" edge="1" parent="1" target="KSKS-mOUjZ5MCXabh2uJ-1">
          <mxGeometry width="50" height="50" relative="1" as="geometry">
            <mxPoint x="10" y="190" as="sourcePoint" />
            <mxPoint x="60" y="140" as="targetPoint" />
          </mxGeometry>
        </mxCell>
        <mxCell id="f7zmV67krFqIdTI_dObS-59" value="" style="endArrow=none;html=1;strokeWidth=1;fontSize=17;exitX=0;exitY=0;exitDx=0;exitDy=0;" edge="1" parent="1" source="KSKS-mOUjZ5MCXabh2uJ-1">
          <mxGeometry width="50" height="50" relative="1" as="geometry">
            <mxPoint x="150" y="100" as="sourcePoint" />
            <mxPoint x="200" y="50" as="targetPoint" />
          </mxGeometry>
        </mxCell>
        <mxCell id="f7zmV67krFqIdTI_dObS-60" value="" style="endArrow=none;html=1;strokeWidth=1;fontSize=17;entryX=0;entryY=0;entryDx=0;entryDy=0;" edge="1" parent="1" target="KSKS-mOUjZ5MCXabh2uJ-1">
          <mxGeometry width="50" height="50" relative="1" as="geometry">
            <mxPoint x="140" y="140" as="sourcePoint" />
            <mxPoint x="190" y="90" as="targetPoint" />
          </mxGeometry>
        </mxCell>
        <mxCell id="f7zmV67krFqIdTI_dObS-61" value="" style="endArrow=none;html=1;strokeWidth=1;fontSize=17;entryX=0.59;entryY=0.982;entryDx=0;entryDy=0;entryPerimeter=0;exitX=0.107;exitY=0;exitDx=0;exitDy=0;exitPerimeter=0;" edge="1" parent="1" source="KSKS-mOUjZ5MCXabh2uJ-1" target="KSKS-mOUjZ5MCXabh2uJ-17">
          <mxGeometry width="50" height="50" relative="1" as="geometry">
            <mxPoint x="240" y="30" as="sourcePoint" />
            <mxPoint x="290" y="-20" as="targetPoint" />
          </mxGeometry>
        </mxCell>
        <mxCell id="KSKS-mOUjZ5MCXabh2uJ-40" value="Attends" style="rhombus;whiteSpace=wrap;html=1;fontSize=17;" parent="1" vertex="1">
          <mxGeometry x="520" y="130" width="80" height="80" as="geometry" />
        </mxCell>
        <mxCell id="f7zmV67krFqIdTI_dObS-64" value="" style="endArrow=none;html=1;strokeWidth=1;fontSize=17;entryX=0;entryY=0.5;entryDx=0;entryDy=0;" edge="1" parent="1" target="KSKS-mOUjZ5MCXabh2uJ-40">
          <mxGeometry width="50" height="50" relative="1" as="geometry">
            <mxPoint x="520" y="170" as="sourcePoint" />
            <mxPoint x="720" y="170" as="targetPoint" />
            <Array as="points" />
          </mxGeometry>
        </mxCell>
        <mxCell id="f7zmV67krFqIdTI_dObS-65" style="edgeStyle=orthogonalEdgeStyle;rounded=0;orthogonalLoop=1;jettySize=auto;html=1;exitX=0.5;exitY=1;exitDx=0;exitDy=0;endArrow=classic;endFill=1;strokeWidth=1;fontSize=17;" edge="1" parent="1" source="KSKS-mOUjZ5MCXabh2uJ-3" target="KSKS-mOUjZ5MCXabh2uJ-3">
          <mxGeometry relative="1" as="geometry" />
        </mxCell>
      </root>
    </mxGraphModel>
  </diagram>
</mxfile>
